<svg width="32" height="32" viewBox="0 0 32 32" fill="none" xmlns="http://www.w3.org/2000/svg">
<path d="M5.95967 16.2268C5.70633 16.2268 5.453 16.1335 5.253 15.9335L3.63967 14.3201L2.02633 15.9335C1.63966 16.3201 0.999665 16.3201 0.612998 15.9335C0.226331 15.5468 0.226331 14.9068 0.612998 14.5201L2.933 12.2002C3.31966 11.8135 3.95967 11.8135 4.34634 12.2002L6.66633 14.5201C7.053 14.9068 7.053 15.5468 6.66633 15.9335C6.47967 16.1335 6.213 16.2268 5.95967 16.2268Z" fill="white"/>
<path d="M28.3467 20.0921C28.0934 20.0921 27.84 19.9987 27.64 19.7987L25.32 17.4787C24.9334 17.0921 24.9334 16.4521 25.32 16.0654C25.7067 15.6787 26.3467 15.6787 26.7334 16.0654L28.3467 17.6788L29.96 16.0654C30.3467 15.6787 30.9867 15.6787 31.3734 16.0654C31.76 16.4521 31.76 17.0921 31.3734 17.4787L29.0534 19.7987C28.8667 19.9854 28.6 20.0921 28.3467 20.0921Z" fill="white"/>
<path d="M28.3468 20.0927C27.8002 20.0927 27.3468 19.6394 27.3468 19.0927V15.9993C27.3468 9.74602 22.2535 4.65267 16.0002 4.65267C12.5468 4.65267 9.32015 6.19934 7.14682 8.90601C6.80015 9.33267 6.17348 9.39933 5.74681 9.066C5.32015 8.71933 5.24015 8.09268 5.58682 7.66602C8.13349 4.47935 11.9335 2.66602 16.0002 2.66602C23.3602 2.66602 29.3468 8.6527 29.3468 16.0127V19.106C29.3468 19.6394 28.9068 20.0927 28.3468 20.0927Z" fill="white"/>
<path d="M16.0002 29.3463C8.64023 29.3463 2.65356 23.3596 2.65356 15.9996V12.9062C2.65356 12.3596 3.1069 11.9062 3.65356 11.9062C4.20023 11.9062 4.65356 12.3596 4.65356 12.9062V15.9996C4.65356 22.2529 9.7469 27.3463 16.0002 27.3463C19.4536 27.3463 22.6802 25.7996 24.8536 23.0929C25.2002 22.6663 25.8269 22.5863 26.2536 22.9329C26.6802 23.2796 26.7602 23.9063 26.4136 24.3329C23.8669 27.5196 20.0669 29.3463 16.0002 29.3463Z" fill="white"/>
<path d="M17.84 17.0007H12C11.4533 17.0007 11 16.5473 11 16.0007V11.334C11 10.7873 11.4533 10.334 12 10.334H17.84C19.6133 10.334 21.1733 11.894 21.1733 13.6673C21.1733 15.5073 19.6667 17.0007 17.84 17.0007ZM13 15.0007H17.8267C18.56 15.0007 19.16 14.4007 19.16 13.6673C19.16 13.0673 18.56 12.334 17.8267 12.334H13V15.0007Z" fill="white"/>
<path d="M18.6667 21.6667H12C11.4533 21.6667 11 21.2133 11 20.6667V16C11 15.4533 11.4533 15 12 15H18.6667C20.6933 15 22.3333 16.4933 22.3333 18.3333C22.3333 20.1733 20.6933 21.6667 18.6667 21.6667ZM13 19.6667H18.6667C19.5867 19.6667 20.3333 19.0667 20.3333 18.3333C20.3333 17.6 19.5867 17 18.6667 17H13V19.6667Z" fill="white"/>
<path d="M15.7332 23.9993C15.1865 23.9993 14.7332 23.546 14.7332 22.9993V20.666C14.7332 20.1193 15.1865 19.666 15.7332 19.666C16.2798 19.666 16.7332 20.1193 16.7332 20.666V22.9993C16.7332 23.546 16.2798 23.9993 15.7332 23.9993Z" fill="white"/>
<path d="M15.7332 12.3333C15.1865 12.3333 14.7332 11.88 14.7332 11.3333V9C14.7332 8.45333 15.1865 8 15.7332 8C16.2798 8 16.7332 8.45333 16.7332 9V11.3333C16.7332 11.88 16.2798 12.3333 15.7332 12.3333Z" fill="white"/>
</svg>
