<svg width="32" height="32" viewBox="0 0 32 32" fill="none" xmlns="http://www.w3.org/2000/svg">
<path d="M21.3337 31.6263C20.9737 31.6263 20.6403 31.4264 20.467 31.1197C20.2937 30.813 20.2937 30.4264 20.4803 30.1197L21.8803 27.7864C22.1603 27.3064 22.7737 27.1597 23.2537 27.4397C23.7337 27.7197 23.8803 28.333 23.6003 28.813L23.2403 29.413C26.9203 28.5463 29.6803 25.2396 29.6803 21.293C29.6803 20.7463 30.1337 20.293 30.6803 20.293C31.227 20.293 31.6803 20.7463 31.6803 21.293C31.667 26.9863 27.027 31.6263 21.3337 31.6263Z" fill="white"/>
<path d="M1.33325 11.6263C0.786585 11.6263 0.333252 11.173 0.333252 10.6263C0.333252 4.93297 4.97325 0.292969 10.6666 0.292969C11.0266 0.292969 11.3599 0.492975 11.5333 0.799642C11.7066 1.10631 11.7066 1.49298 11.5199 1.79964L10.1199 4.13298C9.83992 4.61298 9.22659 4.75965 8.74659 4.47966C8.26659 4.19966 8.11992 3.58636 8.39992 3.10636L8.75992 2.50635C5.07992 3.37301 2.31992 6.67964 2.31992 10.6263C2.33325 11.173 1.87992 11.6263 1.33325 11.6263Z" fill="white"/>
<path d="M12.5736 21.4395H8.8269C8.28024 21.4395 7.8269 20.9861 7.8269 20.4395V17.4395C7.8269 16.8928 8.28024 16.4395 8.8269 16.4395H12.5736C13.9069 16.4395 15.0802 17.6128 15.0802 18.9461C15.0802 20.3061 13.9469 21.4395 12.5736 21.4395ZM9.8269 19.4395H12.5736C12.8536 19.4395 13.0802 19.2128 13.0802 18.9328C13.0802 18.7328 12.8536 18.4261 12.5736 18.4261H9.8269V19.4395Z" fill="white"/>
<path d="M13.1058 24.4395H8.8125C8.26583 24.4395 7.8125 23.9861 7.8125 23.4395V20.4395C7.8125 19.8928 8.26583 19.4395 8.8125 19.4395H13.1058C14.5992 19.4395 15.8258 20.5595 15.8258 21.9461C15.8258 23.3328 14.6125 24.4395 13.1058 24.4395ZM9.82583 22.4395H13.1192C13.5458 22.4395 13.8392 22.1728 13.8392 21.9328C13.8392 21.6928 13.5458 21.4261 13.1192 21.4261H9.82583V22.4395Z" fill="white"/>
<path d="M11.2266 25.9344C10.6799 25.9344 10.2266 25.4811 10.2266 24.9344V23.4277C10.2266 22.8811 10.6799 22.4277 11.2266 22.4277C11.7732 22.4277 12.2266 22.8811 12.2266 23.4277V24.9344C12.2266 25.4944 11.7732 25.9344 11.2266 25.9344Z" fill="white"/>
<path d="M11.2266 18.4266C10.6799 18.4266 10.2266 17.9733 10.2266 17.4266V15.9199C10.2266 15.3733 10.6799 14.9199 11.2266 14.9199C11.7732 14.9199 12.2266 15.3733 12.2266 15.9199V17.4266C12.2266 17.9866 11.7732 18.4266 11.2266 18.4266Z" fill="white"/>
<path d="M11.5599 29.6663C6.46658 29.6663 2.33325 25.5196 2.33325 20.4396C2.33325 15.3596 6.47992 11.2129 11.5599 11.2129C11.7999 11.2129 12.0133 11.2263 12.2533 11.2396C16.7733 11.5863 20.4266 15.2396 20.7599 19.7329C20.7733 20.0262 20.7866 20.2263 20.7866 20.4396C20.7999 25.5196 16.6532 29.6663 11.5599 29.6663ZM11.5599 13.1996C7.57325 13.1996 4.33325 16.4396 4.33325 20.4263C4.33325 24.4129 7.57325 27.6529 11.5599 27.6529C15.5466 27.6529 18.7999 24.4129 18.7999 20.4263C18.7999 20.2529 18.7866 20.0796 18.7733 19.9062C18.5066 16.3329 15.6399 13.4796 12.1199 13.2129C11.9466 13.2129 11.7599 13.1996 11.5599 13.1996Z" fill="white"/>
<path d="M20.4403 20.799H19.787C19.267 20.799 18.827 20.399 18.787 19.879C18.5203 16.3457 15.667 13.4923 12.1336 13.2257C11.6136 13.1857 11.2136 12.7457 11.2136 12.2257V11.5723C11.2136 6.47901 15.3603 2.3457 20.4536 2.3457C25.547 2.3457 29.6803 6.49235 29.6803 11.5723C29.6803 16.6523 25.5203 20.799 20.4403 20.799ZM13.2003 11.3457C16.9603 12.0257 19.9736 15.0257 20.6536 18.799C24.547 18.679 27.667 15.479 27.667 11.5723C27.667 7.58568 24.427 4.3457 20.4403 4.3457C16.5203 4.33237 13.3203 7.45237 13.2003 11.3457Z" fill="white"/>
</svg>
