<svg width="32" height="32" viewBox="0 0 32 32" fill="none" xmlns="http://www.w3.org/2000/svg">
<path d="M13.6667 13.374C13.6667 14.094 13.8667 14.2007 14.3201 14.3607L15.0001 14.6007V12.334H14.6001C14.0934 12.334 13.6667 12.8007 13.6667 13.374Z" fill="#0096FF"/>
<path d="M17 19.6671H17.4C17.92 19.6671 18.3333 19.2004 18.3333 18.6271C18.3333 17.9071 18.1333 17.8004 17.68 17.6404L17 17.4004V19.6671Z" fill="#0096FF"/>
<path d="M26.1067 7.30602L23.3734 10.0393C23.1734 10.2393 22.9201 10.3327 22.6667 10.3327C22.4134 10.3327 22.1601 10.2393 21.9601 10.0393C21.5734 9.65268 21.5734 9.01268 21.9601 8.62602L24.6934 5.89268C22.3467 3.89268 19.3201 2.66602 16.0001 2.66602C8.64008 2.66602 2.66675 8.63935 2.66675 15.9993C2.66675 23.3594 8.64008 29.3327 16.0001 29.3327C23.3601 29.3327 29.3334 23.3594 29.3334 15.9993C29.3334 12.6793 28.1067 9.65268 26.1067 7.30602ZM18.3334 15.7593C19.1867 16.066 20.3334 16.6793 20.3334 18.6393C20.3334 20.306 19.0134 21.6793 17.4001 21.6793H17.0001V22.0127C17.0001 22.5593 16.5467 23.0127 16.0001 23.0127C15.4534 23.0127 15.0001 22.5593 15.0001 22.0127V21.6793H14.8934C13.1201 21.6793 11.6667 20.186 11.6667 18.346C11.6667 17.786 12.1201 17.3327 12.6667 17.3327C13.2134 17.3327 13.6667 17.786 13.6667 18.3327C13.6667 19.066 14.2134 19.666 14.8934 19.666H15.0001V16.706L13.6667 16.2393C12.8134 15.9327 11.6667 15.3194 11.6667 13.3594C11.6667 11.6927 12.9867 10.3193 14.6001 10.3193H15.0001V9.99935C15.0001 9.45268 15.4534 8.99935 16.0001 8.99935C16.5467 8.99935 17.0001 9.45268 17.0001 9.99935V10.3327H17.1067C18.8801 10.3327 20.3334 11.826 20.3334 13.666C20.3334 14.2127 19.8801 14.666 19.3334 14.666C18.7867 14.666 18.3334 14.2127 18.3334 13.666C18.3334 12.9327 17.7867 12.3327 17.1067 12.3327H17.0001V15.2927L18.3334 15.7593Z" fill="#0096FF"/>
<path d="M30.2533 2.27935C30.1467 2.03935 29.96 1.83935 29.7067 1.73268C29.5867 1.69268 29.4667 1.66602 29.3333 1.66602H24C23.4533 1.66602 23 2.11935 23 2.66602C23 3.21268 23.4533 3.66602 24 3.66602H26.92L24.6933 5.89268C25.2 6.33268 25.6667 6.79935 26.1067 7.30602L28.3333 5.07935V7.99935C28.3333 8.54602 28.7867 8.99935 29.3333 8.99935C29.88 8.99935 30.3333 8.54602 30.3333 7.99935V2.66602C30.3333 2.53268 30.3067 2.41268 30.2533 2.27935Z" fill="#0096FF"/>
</svg>
