<svg width="32" height="32" viewBox="0 0 32 32" fill="none" xmlns="http://www.w3.org/2000/svg">
<path d="M17.5737 15.8135C17.0404 15.8135 16.5604 15.5202 16.3337 15.0402L14.4004 11.1868L13.8404 12.2268C13.5337 12.8001 12.9204 13.1601 12.267 13.1601H11.2937C10.747 13.1601 10.2937 12.7068 10.2937 12.1601C10.2937 11.6135 10.747 11.1601 11.2937 11.1601H12.147L13.2004 9.21344C13.4537 8.76011 13.9603 8.45346 14.4403 8.48013C14.9603 8.48013 15.427 8.7868 15.667 9.24014L17.5737 13.0535L18.027 12.1334C18.3337 11.5201 18.9337 11.1468 19.627 11.1468H20.707C21.2537 11.1468 21.707 11.6001 21.707 12.1468C21.707 12.6935 21.2537 13.1468 20.707 13.1468H19.7604L18.8137 15.0268C18.5737 15.5202 18.107 15.8135 17.5737 15.8135Z" fill="white"/>
<path d="M3.66667 24.8658C3.12 24.8658 2.66667 24.4125 2.66667 23.8658V16.2658C2.6 12.6525 3.94666 9.23912 6.45333 6.67912C8.96 4.13245 12.32 2.73242 15.9334 2.73242C23.32 2.73242 29.3333 8.74574 29.3333 16.1324V23.7324C29.3333 24.2791 28.88 24.7324 28.3333 24.7324C27.7867 24.7324 27.3333 24.2791 27.3333 23.7324V16.1324C27.3333 9.85241 22.2267 4.73242 15.9334 4.73242C12.8534 4.73242 10 5.9191 7.88001 8.0791C5.74667 10.2524 4.61334 13.1458 4.66667 16.2391V23.8525C4.66667 24.4125 4.22667 24.8658 3.66667 24.8658Z" fill="white"/>
<path d="M7.92033 16.5996H7.74699C4.94699 16.5996 2.66699 18.8796 2.66699 21.6796V24.1863C2.66699 26.9863 4.94699 29.2663 7.74699 29.2663H7.92033C10.7203 29.2663 13.0003 26.9863 13.0003 24.1863V21.6796C13.0003 18.8796 10.7203 16.5996 7.92033 16.5996Z" fill="white"/>
<path d="M24.2536 16.5996H24.0802C21.2802 16.5996 19.0002 18.8796 19.0002 21.6796V24.1863C19.0002 26.9863 21.2802 29.2663 24.0802 29.2663H24.2536C27.0536 29.2663 29.3336 26.9863 29.3336 24.1863V21.6796C29.3336 18.8796 27.0536 16.5996 24.2536 16.5996Z" fill="white"/>
</svg>
