<svg preserveAspectRatio="none" width="100%" height="100%" overflow="visible" style="display: block;" viewBox="0 0 28 28" fill="none" xmlns="http://www.w3.org/2000/svg">
<g id="monitor-mobbile">
<path id="Vector" d="M11.6667 19.7753H7.245C3.31333 19.7753 2.33333 18.7953 2.33333 14.8637V7.86365C2.33333 3.93199 3.31333 2.95199 7.245 2.95199H19.53C23.4617 2.95199 24.4417 3.93199 24.4417 7.86365" stroke="var(--stroke-0, white)" stroke-width="1.75" stroke-linecap="round" stroke-linejoin="round"/>
<path id="Vector_2" d="M11.6667 25.0483V19.775" stroke="var(--stroke-0, white)" stroke-width="1.75" stroke-linecap="round" stroke-linejoin="round"/>
<path id="Vector_3" d="M2.33333 15.1083H11.6667" stroke="var(--stroke-0, white)" stroke-width="1.75" stroke-linecap="round" stroke-linejoin="round"/>
<path id="Vector_4" d="M7.86361 25.048H11.6669" stroke="var(--stroke-0, white)" stroke-width="1.75" stroke-linecap="round" stroke-linejoin="round"/>
<path id="Vector_5" d="M25.6667 14.9333V21.595C25.6667 24.36 24.9783 25.0483 22.2133 25.0483H18.0717C15.3067 25.0483 14.6183 24.36 14.6183 21.595V14.9333C14.6183 12.1683 15.3067 11.48 18.0717 11.48H22.2133C24.9783 11.48 25.6667 12.1683 25.6667 14.9333Z" stroke="var(--stroke-0, white)" stroke-width="1.75" stroke-linecap="round" stroke-linejoin="round"/>
<path id="Vector_6" d="M20.1186 21.2917H20.1291" stroke="var(--stroke-0, white)" stroke-width="2.33333" stroke-linecap="round" stroke-linejoin="round"/>
<g id="Vector_7" opacity="0">
</g>
</g>
</svg>
