<svg preserveAspectRatio="none" width="100%" height="100%" overflow="visible" style="display: block;" viewBox="0 0 37.2125 8.42801" fill="none" xmlns="http://www.w3.org/2000/svg">
<g id="Frame 1707482134">
<path id="Vector" d="M4.20209 8.42801C6.52284 8.42801 8.40418 6.54134 8.40418 4.214C8.40418 1.88667 6.52284 0 4.20209 0C1.88134 0 0 1.88667 0 4.214C0 6.54134 1.88134 8.42801 4.20209 8.42801Z" fill="var(--fill-0, white)" fill-opacity="0.33"/>
<path id="Vector_2" d="M18.6063 8.42801C20.927 8.42801 22.8084 6.54134 22.8084 4.214C22.8084 1.88667 20.927 0 18.6063 0C16.2855 0 14.4042 1.88667 14.4042 4.214C14.4042 6.54134 16.2855 8.42801 18.6063 8.42801Z" fill="var(--fill-0, white)" fill-opacity="0.33"/>
<path id="Vector_3" d="M33.0105 8.42801C35.3312 8.42801 37.2125 6.54134 37.2125 4.214C37.2125 1.88667 35.3312 0 33.0105 0C30.6897 0 28.8084 1.88667 28.8084 4.214C28.8084 6.54134 30.6897 8.42801 33.0105 8.42801Z" fill="var(--fill-0, white)" fill-opacity="0.33"/>
</g>
</svg>
