<svg preserveAspectRatio="none" width="100%" height="100%" overflow="visible" style="display: block;" viewBox="0 0 48.2 48.2" fill="none" xmlns="http://www.w3.org/2000/svg">
<g id="user">
<path id="Vector" d="M30.6722 24.1682C30.8097 24.25 30.9795 24.3458 31.1718 24.4543C32.0142 24.9295 33.2876 25.6479 34.16 26.5018C34.7055 27.0359 35.224 27.7396 35.3182 28.6019C35.4184 29.5188 35.0185 30.3792 34.2159 31.1438C32.8315 32.4627 31.1701 33.5197 29.0212 33.5197H18.5996C16.4507 33.5197 14.7893 32.4627 13.4049 31.1438C12.6024 30.3792 12.2024 29.5188 12.3027 28.6019C12.3969 27.7396 12.9153 27.0359 13.4609 26.5018C14.3333 25.6479 15.6067 24.9295 16.4491 24.4543C16.6414 24.3459 16.8112 24.25 16.9486 24.1682C21.1489 21.6671 26.472 21.6671 30.6722 24.1682Z" fill="url(#paint0_linear_158960_32431)"/>
<path id="Vector_2" opacity="0.4" d="M17.6078 14.3153C17.6078 10.8886 20.3857 8.11074 23.8124 8.11074C27.239 8.11074 30.0169 10.8886 30.0169 14.3153C30.0169 17.742 27.239 20.5198 23.8124 20.5198C20.3857 20.5198 17.6078 17.742 17.6078 14.3153Z" fill="url(#paint1_linear_158960_32431)"/>
<g id="Ellipse 8" filter="url(#filter0_f_158960_32431)">
<circle cx="24.1" cy="24.1" r="6.5" fill="url(#paint2_linear_158960_32431)"/>
</g>
</g>
<defs>
<filter id="filter0_f_158960_32431" x="0" y="0" width="48.2" height="48.2" filterUnits="userSpaceOnUse" color-interpolation-filters="sRGB">
<feFlood flood-opacity="0" result="BackgroundImageFix"/>
<feBlend mode="normal" in="SourceGraphic" in2="BackgroundImageFix" result="shape"/>
<feGaussianBlur stdDeviation="8.8" result="effect1_foregroundBlur_158960_32431"/>
</filter>
<linearGradient id="paint0_linear_158960_32431" x1="12.2875" y1="27.906" x2="35.3333" y2="27.906" gradientUnits="userSpaceOnUse">
<stop stop-color="#0096FF"/>
<stop offset="1" stop-color="#AE67FF"/>
</linearGradient>
<linearGradient id="paint1_linear_158960_32431" x1="17.6078" y1="14.3153" x2="30.0169" y2="14.3153" gradientUnits="userSpaceOnUse">
<stop stop-color="#0096FF"/>
<stop offset="1" stop-color="#AE67FF"/>
</linearGradient>
<linearGradient id="paint2_linear_158960_32431" x1="17.6" y1="24.1" x2="30.6" y2="24.1" gradientUnits="userSpaceOnUse">
<stop stop-color="#0096FF"/>
<stop offset="1" stop-color="#AE67FF"/>
</linearGradient>
</defs>
</svg>
