<svg preserveAspectRatio="none" width="100%" height="100%" overflow="visible" style="display: block;" viewBox="0 0 48.2 48.2" fill="none" xmlns="http://www.w3.org/2000/svg">
<g id="mail-01">
<path id="Vector" d="M12.1286 20.2332C12.1655 18.5012 12.196 17.0702 12.3977 15.9105L15.0551 17.2781C14.9361 17.2361 14.8447 17.2326 14.7623 17.2781C14.5887 17.3737 14.5773 17.6134 14.5544 18.0926C14.5236 18.7385 14.5069 19.4873 14.488 20.3726C14.4636 21.5184 14.4636 22.1111 14.4881 23.257C14.5274 25.1006 14.5573 26.3521 14.7247 27.3153C14.8824 28.2222 15.1455 28.7612 15.5956 29.2124C16.041 29.6589 16.5872 29.9265 17.5247 30.0896C18.5153 30.2619 19.8073 30.2973 21.7017 30.3449C23.9735 30.4019 25.6512 30.4019 27.923 30.3448C29.8174 30.2973 31.1094 30.2619 32.1 30.0896C33.0375 29.9265 33.5837 29.6589 34.0291 29.2124C34.4792 28.7612 34.7423 28.2222 34.9 27.3153C35.0675 26.3521 35.0974 25.1005 35.1367 23.2568C35.1612 22.1111 35.1612 21.5184 35.1367 20.3726C35.1178 19.4872 35.101 18.7383 35.0703 18.0923C35.0474 17.6131 35.0359 17.3735 34.8624 17.2778C34.7798 17.2323 34.6882 17.2358 34.5689 17.2781L37.227 15.9105C37.4286 17.0702 37.4592 18.5012 37.4961 20.2332L37.498 20.3223C37.5232 21.5016 37.5232 22.1278 37.498 23.3072L37.4961 23.3963C37.4592 25.1282 37.4287 26.5593 37.227 27.7189C37.0123 28.9545 36.5881 29.9892 35.7023 30.8772C34.812 31.7698 33.7607 32.1952 32.5053 32.4136C31.3223 32.6193 29.8546 32.6561 28.0707 32.7009L27.9823 32.703C25.6709 32.761 23.9538 32.761 21.6424 32.7031L21.5539 32.7009C19.7701 32.6561 18.3025 32.6193 17.1195 32.4136C15.864 32.1952 14.8127 31.7698 13.9223 30.8772C13.0366 29.9892 12.6125 28.9546 12.3977 27.7189C12.196 26.5593 12.1655 25.1282 12.1286 23.3963L12.1267 23.3072C12.1015 22.1278 12.1015 21.5016 12.1267 20.3223L12.1286 20.2332Z" fill="var(--fill-0, #0096FF)"/>
<path id="Vector_2" opacity="0.4" d="M21.6416 10.9267C23.9529 10.8687 25.6702 10.8687 27.9815 10.9267L28.07 10.9289C29.8538 10.9736 31.3215 11.0104 32.5045 11.2162C32.9421 11.2923 33.3548 11.3936 33.7447 11.531C33.8482 11.5553 33.9477 11.5935 34.0403 11.6442C34.65 11.8968 35.2012 12.2509 35.7016 12.7525C36.5873 13.6405 37.0114 14.6752 37.2263 15.9108L34.568 17.2784C34.4367 17.3249 34.2718 17.4184 34.0482 17.5451L29.0422 20.3815C27.5063 21.2518 26.2073 21.815 24.8113 21.815C23.4153 21.815 22.1164 21.2518 20.5805 20.3815L15.575 17.5453C15.351 17.4184 15.1858 17.3248 15.0543 17.2784L12.3969 15.9108C12.6117 14.6752 13.0358 13.6405 13.9215 12.7525C14.8119 11.8599 15.8632 11.4346 17.1187 11.2162C18.3017 11.0104 19.7693 10.9736 21.5531 10.9289L21.6416 10.9267Z" fill="var(--fill-0, #0096FF)"/>
<g id="Ellipse 8" filter="url(#filter0_f_158960_32436)">
<circle cx="24.1" cy="24.1" r="6.5" fill="var(--fill-0, #0096FF)"/>
</g>
</g>
<defs>
<filter id="filter0_f_158960_32436" x="0" y="0" width="48.2" height="48.2" filterUnits="userSpaceOnUse" color-interpolation-filters="sRGB">
<feFlood flood-opacity="0" result="BackgroundImageFix"/>
<feBlend mode="normal" in="SourceGraphic" in2="BackgroundImageFix" result="shape"/>
<feGaussianBlur stdDeviation="8.8" result="effect1_foregroundBlur_158960_32436"/>
</filter>
</defs>
</svg>
