<svg preserveAspectRatio="none" width="100%" height="100%" overflow="visible" style="display: block;" viewBox="0 0 116.301 14.7775" fill="none" xmlns="http://www.w3.org/2000/svg">
<g id="Frame 1707482129">
<g id="Group">
<path id="Vector" d="M9.98505 3.64349C9.98505 5.32432 8.62637 6.68685 6.95114 6.68685C5.2745 6.68685 3.91583 5.32432 3.91583 3.64349C3.91583 1.96253 5.2745 0.6 6.95114 0.6C8.62637 0.6 9.98505 1.96253 9.98505 3.64349Z" fill="var(--fill-0, #0096FF)" stroke="var(--stroke-0, #0096FF)" stroke-width="1.2" stroke-linecap="round" stroke-linejoin="round"/>
<path id="Vector_2" d="M2.13988 14.1775H11.7627C12.8286 14.1775 13.6494 13.258 13.1522 12.3125C12.4196 10.9215 10.75 9.26119 6.95127 9.26119C3.15258 9.26119 1.48155 10.9215 0.748981 12.3125C0.251734 13.258 1.07255 14.1775 2.13988 14.1775Z" fill="var(--fill-0, #0096FF)" stroke="var(--stroke-0, #0096FF)" stroke-width="1.2" stroke-linecap="round" stroke-linejoin="round"/>
</g>
<path id="Vector_3" d="M110.568 3.38876H36.0344C32.868 3.38876 30.3011 5.17962 30.3011 7.38876C30.3011 9.5979 32.868 11.3888 36.0344 11.3888H110.568C113.734 11.3888 116.301 9.5979 116.301 7.38876C116.301 5.17962 113.734 3.38876 110.568 3.38876Z" fill="var(--fill-0, white)" fill-opacity="0.32"/>
</g>
</svg>
