<svg preserveAspectRatio="none" width="100%" height="100%" overflow="visible" style="display: block;" viewBox="0 0 36 36" fill="none" xmlns="http://www.w3.org/2000/svg">
<g id="buy-crypto">
<path id="Vector" d="M33 12.75C33 18.135 28.635 22.5 23.25 22.5C22.995 22.5 22.725 22.485 22.47 22.47C22.095 17.715 18.285 13.905 13.53 13.53C13.515 13.275 13.5 13.005 13.5 12.75C13.5 7.365 17.865 3 23.25 3C28.635 3 33 7.365 33 12.75Z" stroke="var(--stroke-0, white)" stroke-width="2.25" stroke-linecap="round" stroke-linejoin="round"/>
<path id="Vector_2" d="M22.5 23.25C22.5 28.635 18.135 33 12.75 33C7.365 33 3 28.635 3 23.25C3 17.865 7.365 13.5 12.75 13.5C13.005 13.5 13.275 13.515 13.53 13.53C18.285 13.905 22.095 17.715 22.47 22.47C22.485 22.725 22.5 22.995 22.5 23.25Z" stroke="var(--stroke-0, white)" stroke-width="2.25" stroke-linecap="round" stroke-linejoin="round"/>
<path id="Vector_3" d="M11.43 21.93L12.75 19.5L14.07 21.93L16.5 23.25L14.07 24.57L12.75 27L11.43 24.57L9 23.25L11.43 21.93Z" stroke="var(--stroke-0, white)" stroke-width="2.25" stroke-linecap="round" stroke-linejoin="round"/>
<g id="Vector_4" opacity="0">
</g>
</g>
</svg>
