<svg preserveAspectRatio="none" width="100%" height="100%" overflow="visible" style="display: block;" viewBox="0 0 36 36" fill="none" xmlns="http://www.w3.org/2000/svg">
<g id="bitcoin-convert">
<path id="Vector" d="M34.5 23.955C34.5 29.76 29.805 34.455 24 34.455L25.575 31.83" stroke="var(--stroke-0, white)" stroke-width="2.25" stroke-linecap="round" stroke-linejoin="round"/>
<path id="Vector_2" d="M1.5 11.955C1.5 6.14996 6.195 1.45496 12 1.45496L10.425 4.07996" stroke="var(--stroke-0, white)" stroke-width="2.25" stroke-linecap="round" stroke-linejoin="round"/>
<g id="Group">
<g id="Group_2">
<path id="Vector_3" d="M9.93 19.605H14.145C15.075 19.605 15.84 20.445 15.84 21.3C15.84 22.23 15.09 22.995 14.145 22.995H9.93V19.605Z" stroke="var(--stroke-0, white)" stroke-width="2.25" stroke-miterlimit="10" stroke-linecap="round" stroke-linejoin="round"/>
<path id="Vector_4" d="M9.93 22.995H14.76C15.825 22.995 16.695 23.745 16.695 24.69C16.695 25.62 15.825 26.385 14.76 26.385H9.93V22.995Z" stroke="var(--stroke-0, white)" stroke-width="2.25" stroke-miterlimit="10" stroke-linecap="round" stroke-linejoin="round"/>
<path id="Vector_5" d="M12.63 26.37V28.05" stroke="var(--stroke-0, white)" stroke-width="2.25" stroke-miterlimit="10" stroke-linecap="round" stroke-linejoin="round"/>
<path id="Vector_6" d="M12.63 17.925V19.605" stroke="var(--stroke-0, white)" stroke-width="2.25" stroke-miterlimit="10" stroke-linecap="round" stroke-linejoin="round"/>
</g>
<path id="Vector_7" d="M22.275 22.995C22.275 28.11 18.135 32.25 13.02 32.25C7.905 32.25 3.765 28.11 3.765 22.995C3.765 17.88 7.905 13.74 13.02 13.74C13.26 13.74 13.485 13.755 13.74 13.77C18.285 14.115 21.915 17.745 22.26 22.29C22.26 22.515 22.275 22.74 22.275 22.995Z" stroke="var(--stroke-0, white)" stroke-width="2.25" stroke-miterlimit="10" stroke-linecap="round" stroke-linejoin="round"/>
<path id="Vector_8" d="M32.25 13.005C32.25 18.12 28.11 22.26 22.995 22.26H22.26C21.915 17.715 18.285 14.085 13.74 13.74V13.005C13.74 7.88997 17.88 3.75 22.995 3.75C28.11 3.75 32.25 7.88997 32.25 13.005Z" stroke="var(--stroke-0, white)" stroke-width="2.25" stroke-miterlimit="10" stroke-linecap="round" stroke-linejoin="round"/>
</g>
<g id="Vector_9" opacity="0">
</g>
</g>
</svg>
