<svg preserveAspectRatio="none" width="100%" height="100%" overflow="visible" style="display: block;" viewBox="0 0 48.2 48.2" fill="none" xmlns="http://www.w3.org/2000/svg">
<g id="credit-card-accept">
<path id="Vector" d="M35.6003 24.6356C35.8183 25.2509 35.4961 25.9263 34.8809 26.1442C34.2502 26.3676 33.5216 26.8485 32.7498 27.5253C31.9902 28.1914 31.2515 28.9915 30.597 29.7759C29.9449 30.5577 29.3908 31.3066 28.9997 31.8609C28.8044 32.1375 28.6508 32.364 28.5468 32.5201L28.3929 32.7548C28.1645 33.1142 27.7603 33.3232 27.3349 33.3014C26.9096 33.2796 26.5288 33.0306 26.3383 32.6497C25.8175 31.608 25.3503 31.1933 25.1149 31.0362C25.0152 30.9698 24.9479 30.9432 24.9211 30.9341C24.3202 30.8783 23.85 30.3729 23.85 29.7575C23.85 29.1048 24.3791 28.5757 25.0318 28.5757C25.1292 28.5766 25.371 28.5944 25.5596 28.6581C25.8052 28.7283 26.1017 28.8534 26.426 29.0696C26.7501 29.2857 27.0901 29.5844 27.4314 29.9932C27.8038 29.484 28.2629 28.8841 28.782 28.2618C29.4831 27.4213 30.3085 26.5224 31.1913 25.7482C32.062 24.9847 33.054 24.2837 34.0918 23.9161C34.707 23.6983 35.3824 24.0204 35.6003 24.6356Z" fill="url(#paint0_linear_158960_32425)"/>
<path id="Vector_2" opacity="0.4" d="M20.835 33.0082C18.6616 33.0082 16.9548 33.0082 15.6092 32.8562C14.2357 32.701 13.1219 32.3776 12.1961 31.6464C11.919 31.4275 11.662 31.1857 11.4284 30.9237C10.6411 30.0407 10.2895 28.9703 10.122 27.6572C9.95935 26.3814 9.95936 24.767 9.95938 22.7296V22.605C9.95938 21.9245 9.95936 21.2912 9.96543 20.702C9.96877 20.3762 9.97045 20.2133 10.0741 20.1108C10.1777 20.0082 10.3418 20.0082 10.6701 20.0082H34.6577C34.986 20.0082 35.1502 20.0082 35.2538 20.1108C35.3573 20.2133 35.3591 20.3762 35.3624 20.702C35.3642 20.879 35.3655 21.0599 35.3664 21.2449C35.3683 21.6492 35.3693 21.8514 35.2682 21.9552C35.1672 22.0591 34.9164 22.0649 34.415 22.0764C34.1093 22.0834 33.7996 22.1383 33.4957 22.246C32.1528 22.7215 30.9632 23.5875 30.0184 24.4161C29.0431 25.2714 28.1527 26.2444 27.4166 27.127C27.3522 27.2041 27.32 27.2427 27.2891 27.2665C27.1982 27.3365 27.1016 27.3571 26.9901 27.3304C26.9521 27.3212 26.9018 27.2966 26.8012 27.2474C26.5503 27.1248 26.3075 27.0323 26.0774 26.9645C25.65 26.8284 25.2207 26.8054 25.0448 26.8038L25.0275 26.8037C23.3958 26.8037 22.073 28.1265 22.073 29.7582C22.073 31.0827 22.9435 32.2023 24.1444 32.5781L24.1498 32.5798C24.1901 32.5924 24.2136 32.5998 24.242 32.6332C24.3657 32.7786 24.2627 33.0082 24.0718 33.0082H20.835Z" fill="url(#paint1_linear_158960_32425)"/>
<path id="Vector_3" d="M24.4914 12.3266C26.6648 12.3266 28.3717 12.3265 29.7173 12.4785C31.0908 12.6337 32.2045 12.9572 33.1303 13.6884C33.4075 13.9072 33.6644 14.149 33.8981 14.4111C34.6854 15.2941 35.0369 16.3645 35.2044 17.6777C35.2236 17.8288 35.2333 17.9043 35.2159 17.9707C35.1883 18.0767 35.1069 18.1692 35.0052 18.2101C34.9415 18.2357 34.8619 18.2357 34.7026 18.2357H10.6224C10.4631 18.2357 10.3835 18.2357 10.3198 18.2101C10.2181 18.1692 10.1367 18.0767 10.109 17.9707C10.0917 17.9043 10.1013 17.8288 10.1206 17.6777C10.2881 16.3645 10.6396 15.2941 11.4269 14.4111C11.6606 14.149 11.9176 13.9072 12.1947 13.6884C13.1205 12.9572 14.2343 12.6337 15.6077 12.4785C16.9534 12.3265 18.6602 12.3266 20.8336 12.3266H24.4914Z" fill="url(#paint2_linear_158960_32425)"/>
<g id="Ellipse 8" filter="url(#filter0_f_158960_32425)">
<circle cx="24.1" cy="24.1" r="6.5" fill="url(#paint3_linear_158960_32425)"/>
</g>
</g>
<defs>
<filter id="filter0_f_158960_32425" x="0" y="0" width="48.2" height="48.2" filterUnits="userSpaceOnUse" color-interpolation-filters="sRGB">
<feFlood flood-opacity="0" result="BackgroundImageFix"/>
<feBlend mode="normal" in="SourceGraphic" in2="BackgroundImageFix" result="shape"/>
<feGaussianBlur stdDeviation="8.8" result="effect1_foregroundBlur_158960_32425"/>
</filter>
<linearGradient id="paint0_linear_158960_32425" x1="23.85" y1="28.5755" x2="35.6685" y2="28.5755" gradientUnits="userSpaceOnUse">
<stop stop-color="#0096FF"/>
<stop offset="1" stop-color="#AE67FF"/>
</linearGradient>
<linearGradient id="paint1_linear_158960_32425" x1="9.95938" y1="26.5082" x2="35.3669" y2="26.5082" gradientUnits="userSpaceOnUse">
<stop stop-color="#0096FF"/>
<stop offset="1" stop-color="#AE67FF"/>
</linearGradient>
<linearGradient id="paint2_linear_158960_32425" x1="10.1" y1="15.2811" x2="35.225" y2="15.2811" gradientUnits="userSpaceOnUse">
<stop stop-color="#0096FF"/>
<stop offset="1" stop-color="#AE67FF"/>
</linearGradient>
<linearGradient id="paint3_linear_158960_32425" x1="17.6" y1="24.1" x2="30.6" y2="24.1" gradientUnits="userSpaceOnUse">
<stop stop-color="#0096FF"/>
<stop offset="1" stop-color="#AE67FF"/>
</linearGradient>
</defs>
</svg>
