<svg preserveAspectRatio="none" width="100%" height="100%" overflow="visible" style="display: block;" viewBox="0 0 60 60" fill="none" xmlns="http://www.w3.org/2000/svg">
<g id="analytics-02">
<path id="Vector" opacity="0.4" d="M33.4796 4.37981C34.9123 4.38569 35.6288 4.38861 35.8443 4.76269C36.0596 5.13674 35.6611 5.82939 34.8641 7.21469C33.7568 9.13916 33.1236 11.3709 33.1236 13.7505C33.1236 20.9992 38.9998 26.8755 46.2486 26.8755C48.6281 26.8755 50.8598 26.2422 52.7843 25.135C54.1696 24.338 54.8623 23.9395 55.2363 24.1548C55.6106 24.3701 55.6133 25.0867 55.6193 26.5195C55.6236 27.5805 55.6236 28.6925 55.6236 29.8575V30.1435C55.6236 35.6202 55.6236 39.922 55.1721 43.2805C54.7093 46.722 53.7418 49.4527 51.5963 51.5982C49.4508 53.7437 46.7201 54.7112 43.2786 55.174C39.9201 55.6255 35.6183 55.6255 30.1416 55.6255H29.8556C24.3789 55.6255 20.0772 55.6255 16.7186 55.174C13.277 54.7112 10.5463 53.7437 8.40084 51.5982C6.25537 49.4527 5.28777 46.722 4.82504 43.2805C4.37352 39.922 4.37354 35.6202 4.37357 30.1435V29.8575C4.37354 24.3808 4.37352 20.0791 4.82504 16.7205C5.28777 13.2789 6.25537 10.5483 8.40084 8.40276C10.5463 6.25729 13.277 5.28969 16.7186 4.82696C20.0772 4.37544 24.3789 4.37546 29.8556 4.37549H30.1416C31.3066 4.37549 32.4186 4.37546 33.4796 4.37981Z" fill="var(--fill-0, #4380ED)"/>
<path id="Vector_2" fill-rule="evenodd" clip-rule="evenodd" d="M29.9986 21.8745C31.0341 21.8745 31.8736 22.714 31.8736 23.7495V43.7495C31.8736 44.785 31.0341 45.6245 29.9986 45.6245C28.9631 45.6245 28.1236 44.785 28.1236 43.7495V23.7495C28.1236 22.714 28.9631 21.8745 29.9986 21.8745ZM42.4986 31.8745C43.5341 31.8745 44.3736 32.714 44.3736 33.7495V43.7495C44.3736 44.785 43.5341 45.6245 42.4986 45.6245C41.4631 45.6245 40.6236 44.785 40.6236 43.7495V33.7495C40.6236 32.714 41.4631 31.8745 42.4986 31.8745ZM17.4986 34.3745C18.5341 34.3745 19.3736 35.214 19.3736 36.2495V43.7495C19.3736 44.785 18.5341 45.6245 17.4986 45.6245C16.463 45.6245 15.6236 44.785 15.6236 43.7495V36.2495C15.6236 35.214 16.463 34.3745 17.4986 34.3745Z" fill="var(--fill-0, #4380ED)"/>
<path id="Vector_3" d="M36.8764 13.7505C36.8764 8.57281 41.0736 4.37549 46.2514 4.37549C51.4291 4.37549 55.6264 8.57281 55.6264 13.7505C55.6264 18.9282 51.4291 23.1255 46.2514 23.1255C41.0736 23.1255 36.8764 18.9282 36.8764 13.7505Z" fill="var(--fill-0, #4380ED)"/>
</g>
</svg>
